<svg xmlns="http://www.w3.org/2000/svg" viewBox="0 0 48 48" xmlns:xlink="http://www.w3.org/1999/xlink" xml:space="preserve" width="100%" height="100%"><g xmlns="http://www.w3.org/2000/svg" transform="scale(2)"><path d="M12 16.75a.76.76 0 0 1-.75-.75v-5a.75.75 0 0 1 1.5 0v5a.76.76 0 0 1-.75.75m0-7.5a.76.76 0 0 1-.75-.75V8a.75.75 0 0 1 1.5 0v.5a.76.76 0 0 1-.75.75" style="fill: rgb(247, 247, 247);"></path><path d="M12 21a9 9 0 1 1 9-9 9 9 0 0 1-9 9m0-16.5a7.5 7.5 0 1 0 7.5 7.5A7.5 7.5 0 0 0 12 4.5" style="fill: rgb(247, 247, 247);"></path></g></svg>